<?xml version="1.0" encoding="utf-8"?>
<!-- Generator: Adobe Illustrator 18.0.0, SVG Export Plug-In . SVG Version: 6.00 Build 0)  -->
<!DOCTYPE svg PUBLIC "-//W3C//DTD SVG 1.1//EN" "http://www.w3.org/Graphics/SVG/1.1/DTD/svg11.dtd">
<svg version="1.1" id="Layer_1" xmlns="http://www.w3.org/2000/svg" xmlns:xlink="http://www.w3.org/1999/xlink" x="0px" y="0px"
	 viewBox="0 0 100 100" enable-background="new 0 0 100 100" xml:space="preserve">
<g id="GDFmpM.tif" display="none">
	
		<image display="inline" overflow="visible" width="70" height="70" id="Layer_0_1_" xlink:href="3151D04513FEA5FB.png"  transform="matrix(1 0 0 1 15 15)">
	</image>
</g>
<path fill="#6CC7DA" d="M85.4,17.6C104,36.4,103.8,66.7,85,85.3s-49.1,18.4-67.7-0.4"/>
<path fill="#026A77" d="M13.8,82.4C-4.8,63.6-4.6,33.3,14.2,14.7s49.1-18.4,67.7,0.4"/>
<g>
	<path fill="#FFFFFF" d="M23.8,53.3c0.7,0.7,1.4,1.1,2.1,1.3c1.3,0.3,2.7-0.2,4.1-1.4c0.6-0.6,1.1-1.2,1.4-1.9
		c0.7-1.3,0.6-2.4-0.3-3.3c-0.6-0.7-1.3-1-2-0.9c-0.7,0.1-1.6,0.5-2.7,1.1l-2,1.2c-1.3,0.8-2.4,1.2-3.1,1.3
		c-1.3,0.2-2.4-0.2-3.4-1.3c-1.1-1.1-1.6-2.4-1.5-3.9c0.1-1.4,0.8-2.8,2.2-4.1c1.3-1.2,2.7-1.9,4.2-2.1c1.5-0.2,2.9,0.4,4.2,1.8
		l-1.6,1.5c-0.7-0.6-1.4-1-2-1.1c-1.1-0.2-2.3,0.3-3.5,1.4c-1,0.9-1.5,1.8-1.5,2.6c0,0.8,0.2,1.5,0.7,2.1c0.6,0.6,1.3,0.8,2,0.7
		c0.5-0.1,1.5-0.6,2.9-1.4l2.1-1.2c1-0.6,1.9-0.9,2.7-1c1.3-0.1,2.5,0.4,3.6,1.5c1.3,1.4,1.8,2.9,1.3,4.4c-0.4,1.5-1.3,2.9-2.6,4.2
		c-1.5,1.4-3.1,2.2-4.7,2.2c-1.6,0-3.1-0.7-4.3-2.1L23.8,53.3z"/>
	<path fill="#FFFFFF" d="M28.3,33l7.3,7.8c0.9,0.9,1.8,1.5,2.7,1.8c1.4,0.4,2.7,0.1,3.9-1.1c1.5-1.4,2-2.8,1.6-4.3
		c-0.2-0.8-0.8-1.7-1.6-2.6l-7.3-7.8l1.7-1.6l6.7,7.1c1.5,1.6,2.4,3,2.7,4.2c0.7,2.3-0.1,4.4-2.2,6.4c-2.2,2-4.3,2.6-6.5,1.8
		c-1.2-0.4-2.5-1.5-4-3l-6.7-7.1L28.3,33z"/>
	<path fill="#FFFFFF" d="M39.2,22.9l5.5-5.1c1.5-1.4,3-1.9,4.4-1.6c0.9,0.2,1.6,0.6,2.3,1.3c0.7,0.8,1.1,1.7,1.2,2.6
		c0,0.5-0.1,1.1-0.3,1.7c0.9-0.4,1.6-0.5,2.2-0.5c1.1,0,2.1,0.5,3,1.5c0.8,0.8,1.2,1.8,1.3,2.9c0.2,1.7-0.6,3.4-2.3,4.9l-5.4,5
		L39.2,22.9z M49,23.7c0.7-0.7,1.2-1.3,1.4-1.9c0.3-0.9,0.1-1.8-0.6-2.6c-0.8-0.8-1.6-1.1-2.6-0.7c-0.5,0.2-1.2,0.7-1.9,1.4
		l-3.1,2.9l3.7,3.9L49,23.7z M55.1,29c1.1-1,1.5-2,1.4-3c-0.1-0.7-0.4-1.3-0.9-1.8c-0.9-0.9-1.9-1.2-3-0.7c-0.6,0.2-1.3,0.7-2,1.4
		l-3.4,3.2l4.2,4.5L55.1,29z"/>
</g>
<g>
	<path fill="#FFFFFF" d="M40.6,67.5l2.7-2.5L58,73l-6.9-15.2l2.6-2.5L66.5,69l-1.8,1.7l-7.5-8.1c-0.3-0.3-0.7-0.7-1.3-1.4
		c-0.6-0.7-1.2-1.4-1.9-2.1l6.9,15.2L59,75.9l-14.7-7.9l0.4,0.4c0.3,0.3,0.8,0.8,1.5,1.5c0.7,0.7,1.1,1.2,1.4,1.5l7.5,8.1l-1.8,1.6
		L40.6,67.5z"/>
	<path fill="#FFFFFF" d="M57,52.3l1.9-1.7l12.8,13.7L69.7,66L57,52.3z"/>
	<path fill="#FFFFFF" d="M71.8,38.4l1.5,1.6l-4.6,4.3l11.2,12.1l-1.9,1.7L66.8,46.1l-4.6,4.3l-1.5-1.6L71.8,38.4z"/>
</g>
</svg>
